<?xml version="1.0" encoding="utf-8"?>
<!-- Svg Vector Icons : http://www.onlinewebfonts.com/icon -->
<!DOCTYPE svg PUBLIC "-//W3C//DTD SVG 1.1//EN" "http://www.w3.org/Graphics/SVG/1.1/DTD/svg11.dtd">
<svg version="1.1" xmlns="http://www.w3.org/2000/svg" xmlns:xlink="http://www.w3.org/1999/xlink" x="0px" y="0px" viewBox="0 0 1000 1000" enable-background="new 0 0 1000 1000" xml:space="preserve">
<metadata> Svg Vector Icons : http://www.onlinewebfonts.com/icon </metadata>
<g><g><polygon points="323.1,470.6 214.8,470.6 214.8,543.6 141.8,543.6 141.8,651.9 214.8,651.9 214.8,724.9 323.1,724.9 323.1,651.9 396.1,651.9 396.1,543.6 323.1,543.6 "/><path d="M924.6,733l-223.6-48.8c-8.7-1.9-17.4-2.3-25.8-1.5l-30.7-92.6c-14.4-43.5-61.5-67.1-105-52.7c-4.1,1.4-8,3.1-11.7,5V388.1c0-66.9-50-122.3-114.5-131v-76.9h30V64H94.6v116.3h30v76.9C59.9,265.8,10,321.3,10,388.1v415.7C10,876.7,69.3,936,142.1,936h253.7c72.9,0,132.1-59.3,132.1-132.1v-37.7l31,93.4c14.4,43.5,61.5,67.1,105,52.7c26.5-8.8,45.6-29.7,53.2-54.6l172.2,37.6c44.7,9.8,89.1-18.7,98.9-63.4C997.8,787.2,969.4,742.8,924.6,733z M475,803.9c0,43.7-35.6,79.3-79.3,79.3H142.1c-43.7,0-79.3-35.6-79.3-79.3V388.1c0-43.7,35.6-79.3,79.3-79.3h8.8c14.6,0,26.4-11.8,26.4-26.4v-75.8h183.2v75.8c0,14.6,11.8,26.4,26.4,26.4h8.8c43.7,0,79.3,35.6,79.3,79.3V803.9z M655.9,888.5c-30.4,10.1-63.2-6.4-73.3-36.8l-36-108.6l110.1-36.5l36,108.6C702.8,845.6,686.3,878.5,655.9,888.5z M782.8,846.5l-62-13.5c-0.1-8.5-1.4-17.1-4.2-25.5l-33.1-99.8c4,0,8.1,0.3,12.2,1.2l111.8,24.4L782.8,846.5z"/></g></g>
</svg>